<svg xmlns="http://www.w3.org/2000/svg" xmlns:xlink="http://www.w3.org/1999/xlink" preserveAspectRatio="xMidYMid" width="21" height="20" viewBox="0 0 21 20">
  <defs>
    <style>

      .cls-2 {
        fill: #ffffff;
      }
    </style>
  </defs>
  <path d="M20.576,4.429 C20.576,4.429 19.372,13.341 19.372,13.341 C19.188,14.263 18.348,14.976 17.490,14.976 C17.490,14.976 6.610,14.976 6.610,14.976 C5.751,14.976 4.914,14.263 4.731,13.341 C4.731,13.341 3.262,3.054 3.262,3.054 C3.116,2.322 3.105,2.078 3.125,1.999 C3.125,1.999 1.000,1.999 1.000,1.999 C0.447,1.999 -0.000,1.552 -0.000,0.999 C-0.000,0.447 0.447,-0.001 1.000,-0.001 C1.000,-0.001 5.000,-0.001 5.000,-0.001 C5.552,-0.001 6.000,0.447 6.000,0.999 C6.000,1.516 5.604,1.925 5.102,1.979 C5.102,1.979 19.067,1.979 19.067,1.979 C20.172,1.979 20.840,3.110 20.576,4.429 ZM5.418,3.947 C5.418,3.947 6.731,12.947 6.731,12.947 C6.731,12.947 17.403,12.947 17.403,12.947 C17.398,12.947 17.399,12.944 17.407,12.933 C17.407,12.933 18.593,4.145 18.593,4.145 C18.593,4.145 18.621,3.947 18.624,3.947 C18.624,3.947 5.418,3.947 5.418,3.947 ZM7.246,15.956 C8.281,15.956 9.120,16.795 9.120,17.830 C9.120,18.865 8.281,19.704 7.246,19.704 C6.210,19.704 5.371,18.865 5.371,17.830 C5.371,16.795 6.210,15.956 7.246,15.956 ZM16.246,15.956 C17.281,15.956 18.120,16.795 18.120,17.830 C18.120,18.865 17.281,19.704 16.246,19.704 C15.210,19.704 14.371,18.865 14.371,17.830 C14.371,16.795 15.210,15.956 16.246,15.956 Z" id="path-1" class="cls-2" fill-rule="evenodd"/>
</svg>
