<svg xmlns="http://www.w3.org/2000/svg" xmlns:xlink="http://www.w3.org/1999/xlink" preserveAspectRatio="xMidYMid" width="20" height="20" viewBox="0 0 20 20">
  <defs>
    <style>

      .cls-2 {
        fill: #ffffff;
      }
    </style>
  </defs>
  <path d="M15.854,19.986 C15.854,19.986 4.146,19.986 4.146,19.986 C1.848,19.986 -0.015,18.123 -0.015,15.825 C-0.015,15.825 -0.015,4.174 -0.015,4.174 C-0.015,1.876 1.848,0.014 4.146,0.014 C4.146,0.014 15.854,0.014 15.854,0.014 C18.151,0.014 20.014,1.876 20.014,4.174 C20.014,4.174 20.014,15.825 20.014,15.825 C20.014,18.123 18.151,19.986 15.854,19.986 ZM19.000,4.000 C19.000,2.343 17.657,1.000 16.000,1.000 C16.000,1.000 4.000,1.000 4.000,1.000 C2.343,1.000 1.000,2.343 1.000,4.000 C1.000,4.000 1.000,16.000 1.000,16.000 C1.000,17.657 2.343,19.000 4.000,19.000 C4.000,19.000 16.000,19.000 16.000,19.000 C17.657,19.000 19.000,17.657 19.000,16.000 C19.000,16.000 19.000,4.000 19.000,4.000 ZM10.440,12.887 C10.440,12.887 8.675,14.653 8.675,14.653 C8.675,14.653 8.674,14.651 8.674,14.651 C8.674,14.651 8.672,14.653 8.672,14.653 C8.672,14.653 6.907,12.887 6.907,12.887 C6.907,12.887 6.908,12.886 6.908,12.886 C6.908,12.886 3.838,9.816 3.838,9.816 C3.838,9.816 5.604,8.051 5.604,8.051 C5.604,8.051 8.674,11.121 8.674,11.121 C8.674,11.121 14.604,5.190 14.604,5.190 C14.604,5.190 16.369,6.955 16.369,6.955 C16.369,6.955 10.439,12.886 10.439,12.886 C10.439,12.886 10.440,12.887 10.440,12.887 Z" id="path-1" class="cls-2" fill-rule="evenodd"/>
</svg>
