<svg xmlns="http://www.w3.org/2000/svg" xmlns:xlink="http://www.w3.org/1999/xlink" preserveAspectRatio="xMidYMid" width="48" height="48" viewBox="0 0 48 48">
  <defs>
    <style>

      .cls-2 {
        fill: #323232;
      }
    </style>
  </defs>
  <path d="M39.109,23.184 C38.850,23.575 38.230,24.231 36.982,24.231 C36.093,24.231 34.781,23.851 33.726,23.391 C33.956,25.912 33.454,28.783 32.150,31.735 C32.622,32.688 32.823,33.735 32.667,34.814 C32.179,38.200 28.384,40.052 24.143,40.052 C19.902,40.052 16.125,38.200 15.663,34.814 C15.540,33.907 15.667,33.022 15.994,32.197 C14.551,29.116 13.982,26.105 14.207,23.472 C13.188,23.894 11.979,24.231 11.142,24.231 C9.894,24.231 9.274,23.575 9.016,23.184 C8.589,22.539 8.530,21.732 8.853,20.970 C9.665,19.058 12.446,18.227 13.603,17.959 C13.603,17.959 13.700,17.936 13.700,17.936 C12.301,15.035 12.976,10.335 13.502,8.745 C13.502,8.745 16.559,8.999 16.559,8.999 C16.615,10.002 17.325,11.880 19.995,14.009 C19.995,14.009 21.581,15.101 21.581,15.101 C22.331,14.960 23.118,14.864 23.977,14.864 C24.796,14.864 25.547,14.952 26.266,15.081 C26.266,15.081 27.958,13.915 27.958,13.915 C30.628,11.786 31.338,9.908 31.394,8.905 C31.394,8.905 34.451,8.651 34.451,8.651 C34.980,10.251 35.658,14.993 34.227,17.891 C34.227,17.891 34.521,17.959 34.521,17.959 C35.679,18.227 38.458,19.058 39.271,20.970 C39.595,21.732 39.536,22.539 39.109,23.184 ZM14.040,19.907 C14.040,19.907 11.181,20.570 10.678,21.753 C10.176,22.935 13.833,21.622 14.513,21.060 C14.188,20.587 14.158,20.469 14.040,19.907 ZM17.337,19.976 C15.585,22.731 15.760,26.982 17.805,31.348 C17.805,31.348 18.171,32.130 18.171,32.130 C18.171,32.130 17.853,32.932 17.853,32.932 C17.642,33.467 17.572,34.009 17.645,34.543 C17.974,36.955 21.244,38.052 24.143,38.052 C27.050,38.052 30.339,36.950 30.688,34.529 C30.780,33.891 30.669,33.250 30.358,32.624 C30.358,32.624 29.942,31.784 29.942,31.784 C29.942,31.784 30.320,30.926 30.320,30.926 C32.199,26.675 32.290,22.555 30.564,19.907 C29.267,17.916 26.990,16.864 23.977,16.864 C20.928,16.864 18.631,17.940 17.337,19.976 ZM37.431,21.753 C36.928,20.570 34.069,19.907 34.069,19.907 C33.951,20.468 33.921,20.587 33.596,21.059 C34.276,21.622 37.933,22.935 37.431,21.753 ZM18.860,15.655 C18.860,15.655 15.266,13.179 15.125,10.641 C14.722,12.816 14.541,16.254 15.830,17.623 C16.475,17.301 17.490,16.219 18.860,15.655 ZM29.093,15.562 C29.093,15.562 32.687,13.085 32.828,10.547 C33.231,12.722 33.412,16.160 32.123,17.529 C31.478,17.207 30.463,16.125 29.093,15.562 ZM23.714,-0.015 C36.804,-0.015 47.416,10.597 47.416,23.687 C47.416,36.777 36.804,47.389 23.714,47.389 C10.624,47.389 0.013,36.777 0.013,23.687 C0.013,10.597 10.624,-0.015 23.714,-0.015 ZM23.714,45.389 C11.748,45.389 2.013,35.654 2.013,23.687 C2.013,11.720 11.748,1.986 23.714,1.986 C35.681,1.986 45.416,11.720 45.416,23.687 C45.416,35.654 35.681,45.389 23.714,45.389 Z" id="path-1" class="cls-2" fill-rule="evenodd"/>
</svg>
