<svg xmlns="http://www.w3.org/2000/svg" xmlns:xlink="http://www.w3.org/1999/xlink" preserveAspectRatio="xMidYMid" width="10" height="11" viewBox="0 0 10 11">
  <defs>
    <style>

      .cls-2 {
        fill: #353535;
      }
    </style>
  </defs>
  <path d="M10.130,0.692 C10.130,0.692 5.760,5.062 5.760,5.062 C5.760,5.062 10.121,9.423 10.121,9.423 C10.121,9.423 9.414,10.130 9.414,10.130 C9.414,10.130 5.053,5.769 5.053,5.769 C5.053,5.769 0.701,10.121 0.701,10.121 C0.701,10.121 -0.006,9.414 -0.006,9.414 C-0.006,9.414 4.346,5.062 4.346,5.062 C4.346,5.062 -0.015,0.701 -0.015,0.701 C-0.015,0.701 0.693,-0.006 0.693,-0.006 C0.693,-0.006 5.053,4.355 5.053,4.355 C5.053,4.355 9.423,-0.015 9.423,-0.015 C9.423,-0.015 10.130,0.692 10.130,0.692 Z" id="path-1" class="cls-2" fill-rule="evenodd"/>
</svg>
