<svg xmlns="http://www.w3.org/2000/svg" xmlns:xlink="http://www.w3.org/1999/xlink" preserveAspectRatio="xMidYMid" width="32" height="32" viewBox="0 0 32 32">
  <defs>
    <style>

      .cls-2 {
        fill: #ffffff;
      }
    </style>
  </defs>
  <path d="M15.677,31.392 C7.011,31.392 -0.015,24.367 -0.015,15.701 C-0.015,7.035 7.011,0.009 15.677,0.009 C24.343,0.009 31.369,7.035 31.369,15.701 C31.369,24.367 24.343,31.392 15.677,31.392 ZM19.587,6.077 C19.587,6.077 16.794,6.077 16.794,6.077 C13.500,6.077 12.712,7.623 12.712,10.420 C12.712,10.420 12.712,12.618 12.712,12.618 C12.712,12.618 10.823,12.618 10.823,12.618 C10.823,12.618 10.823,15.707 10.823,15.707 C10.823,15.707 12.712,15.707 12.712,15.707 C12.712,15.707 12.712,24.999 12.712,24.999 C12.712,24.999 16.451,24.999 16.451,24.999 C16.451,24.999 16.451,15.707 16.451,15.707 C16.451,15.707 19.193,15.707 19.193,15.707 C19.193,15.707 19.478,12.618 19.478,12.618 C19.478,12.618 16.451,12.618 16.451,12.618 C16.451,12.618 16.456,10.762 16.456,10.762 C16.456,9.868 16.540,9.506 17.823,9.506 C17.823,9.506 19.587,9.506 19.587,9.506 C19.587,9.506 19.587,6.077 19.587,6.077 Z" id="path-1" class="cls-2" fill-rule="evenodd"/>
</svg>
