<svg xmlns="http://www.w3.org/2000/svg" xmlns:xlink="http://www.w3.org/1999/xlink" preserveAspectRatio="xMidYMid" width="48" height="48" viewBox="0 0 48 48">
  <defs>
    <style>

      .cls-2 {
        fill: #323232;
      }
    </style>
  </defs>
  <path d="M23.687,47.389 C10.597,47.389 -0.014,36.777 -0.014,23.687 C-0.014,10.597 10.597,-0.015 23.687,-0.015 C36.777,-0.015 47.389,10.597 47.389,23.687 C47.389,36.777 36.777,47.389 23.687,47.389 ZM23.687,1.986 C11.721,1.986 1.986,11.720 1.986,23.687 C1.986,35.654 11.721,45.389 23.687,45.389 C35.653,45.389 45.389,35.654 45.389,23.687 C45.389,11.720 35.653,1.986 23.687,1.986 ZM31.344,31.186 C31.344,31.186 15.812,31.186 15.812,31.186 C15.365,31.186 15.003,30.824 15.003,30.377 C15.003,30.377 15.003,15.698 15.003,15.698 C15.003,13.407 15.894,11.254 17.514,9.634 C19.134,8.015 21.287,7.123 23.578,7.123 C25.868,7.123 28.022,8.015 29.642,9.634 C31.261,11.254 32.153,13.407 32.153,15.698 C32.153,15.698 32.153,30.377 32.153,30.377 C32.153,30.824 31.791,31.186 31.344,31.186 ZM30.535,19.836 C29.901,19.623 29.503,19.181 29.190,18.833 C28.820,18.422 28.639,18.240 28.244,18.238 C28.221,18.251 28.107,18.330 27.935,18.665 C27.762,19.000 27.602,19.453 27.447,19.891 C27.243,20.465 27.032,21.060 26.750,21.538 C26.325,22.257 25.781,22.621 25.131,22.621 C24.481,22.621 23.937,22.257 23.512,21.538 C23.230,21.060 23.019,20.465 22.815,19.891 C22.660,19.453 22.500,19.000 22.327,18.665 C22.155,18.330 22.042,18.251 22.018,18.238 C21.623,18.240 21.442,18.422 21.073,18.833 C20.643,19.310 20.055,19.964 18.918,19.964 C17.781,19.964 17.193,19.310 16.763,18.833 C16.712,18.776 16.665,18.724 16.621,18.676 C16.621,18.676 16.621,29.569 16.621,29.569 C16.621,29.569 30.535,29.569 30.535,29.569 C30.535,29.569 30.535,19.836 30.535,19.836 ZM25.627,38.149 C25.627,39.280 24.710,40.198 23.578,40.198 C22.446,40.198 21.529,39.280 21.529,38.149 C21.529,38.149 21.529,31.984 21.529,31.984 C21.529,31.984 25.627,31.984 25.627,31.984 C25.627,31.984 25.627,38.149 25.627,38.149 Z" id="path-1" class="cls-2" fill-rule="evenodd"/>
</svg>
