<svg xmlns="http://www.w3.org/2000/svg" xmlns:xlink="http://www.w3.org/1999/xlink" preserveAspectRatio="xMidYMid" width="32" height="32" viewBox="0 0 32 32">
  <defs>
    <style>

      .cls-2 {
        fill: #ffffff;
        opacity: 0.8;
      }
    </style>
  </defs>
  <path d="M15.677,31.392 C7.011,31.392 -0.014,24.367 -0.014,15.701 C-0.014,7.034 7.011,0.009 15.677,0.009 C24.344,0.009 31.369,7.034 31.369,15.701 C31.369,24.367 24.344,31.392 15.677,31.392 ZM23.694,9.563 C23.694,8.600 22.912,7.818 21.949,7.818 C21.949,7.818 9.621,7.818 9.621,7.818 C8.658,7.818 7.876,8.600 7.876,9.563 C7.876,9.563 7.876,21.874 7.876,21.874 C7.876,22.838 8.657,23.619 9.621,23.619 C9.621,23.619 21.949,23.619 21.949,23.619 C22.912,23.619 23.694,22.838 23.694,21.874 C23.694,21.874 23.694,9.563 23.694,9.563 ZM21.372,12.684 C21.372,12.684 19.508,12.684 19.508,12.684 C19.170,12.684 18.896,12.410 18.896,12.073 C18.896,12.073 18.896,10.208 18.896,10.208 C18.896,9.870 19.170,9.597 19.508,9.597 C19.508,9.597 21.372,9.597 21.372,9.597 C21.710,9.597 21.984,9.870 21.984,10.208 C21.984,10.208 21.984,12.073 21.984,12.073 C21.984,12.410 21.710,12.684 21.372,12.684 ZM15.810,18.590 C14.242,18.590 12.972,17.319 12.972,15.751 C12.972,14.183 14.242,12.913 15.810,12.913 C17.378,12.913 18.876,14.057 18.876,15.751 C18.876,17.445 17.378,18.590 15.810,18.590 ZM15.809,20.677 C18.527,20.677 20.731,18.474 20.731,15.756 C20.731,15.329 20.676,14.913 20.574,14.518 C21.457,14.520 21.953,14.518 21.953,14.518 C21.953,14.518 21.953,21.304 21.953,21.304 C21.953,21.641 21.680,21.915 21.342,21.915 C21.342,21.915 10.277,21.915 10.277,21.915 C9.939,21.915 9.665,21.641 9.665,21.304 C9.665,21.304 9.665,14.518 9.665,14.518 C9.665,14.518 9.945,14.518 11.045,14.518 C10.943,14.914 10.888,15.329 10.888,15.756 C10.888,18.474 13.091,20.677 15.809,20.677 Z" id="path-1" class="cls-2" fill-rule="evenodd"/>
</svg>
