<svg xmlns="http://www.w3.org/2000/svg" xmlns:xlink="http://www.w3.org/1999/xlink" preserveAspectRatio="xMidYMid" width="48" height="48" viewBox="0 0 48 48">
  <defs>
    <style>

      .cls-2 {
        fill: #323232;
      }
    </style>
  </defs>
  <path d="M23.687,47.389 C10.597,47.389 -0.014,36.776 -0.014,23.687 C-0.014,10.597 10.597,-0.014 23.687,-0.014 C36.777,-0.014 47.389,10.597 47.389,23.687 C47.389,36.776 36.777,47.389 23.687,47.389 ZM23.687,1.986 C11.721,1.986 1.986,11.720 1.986,23.687 C1.986,35.654 11.721,45.389 23.687,45.389 C35.653,45.389 45.389,35.654 45.389,23.687 C45.389,11.720 35.653,1.986 23.687,1.986 ZM23.625,39.812 C23.625,39.812 1.385,29.625 23.625,7.062 C45.865,29.625 23.625,39.812 23.625,39.812 ZM22.583,11.165 C21.279,12.672 20.158,14.145 19.227,15.584 C19.227,15.584 22.583,18.212 22.583,18.212 C22.583,18.212 22.583,11.165 22.583,11.165 ZM22.583,20.664 C22.583,20.664 18.183,17.285 18.183,17.285 C17.571,18.389 17.100,19.466 16.719,20.525 C16.719,20.525 22.583,24.299 22.583,24.299 C22.583,24.299 22.583,20.664 22.583,20.664 ZM22.583,26.678 C22.583,26.678 16.131,22.525 16.131,22.525 C15.876,23.648 15.728,24.750 15.750,25.815 C15.750,25.815 22.583,30.299 22.583,30.299 C22.583,30.299 22.583,26.678 22.583,26.678 ZM22.583,32.679 C22.583,32.679 16.166,28.548 16.166,28.548 C17.272,32.691 20.483,35.473 22.583,36.883 C22.583,36.883 22.583,32.679 22.583,32.679 ZM24.583,11.068 C24.583,11.068 24.583,18.484 24.583,18.484 C24.583,18.484 28.213,15.885 28.213,15.885 C27.225,14.322 26.015,12.715 24.583,11.068 ZM29.227,17.605 C29.227,17.605 24.604,20.787 24.604,20.787 C24.604,20.787 24.583,24.467 24.583,24.467 C24.583,24.467 30.564,20.618 30.564,20.618 C30.215,19.633 29.777,18.630 29.227,17.605 ZM31.140,22.625 C31.140,22.625 24.604,26.787 24.604,26.787 C24.604,26.787 24.583,30.468 24.583,30.468 C24.583,30.468 31.477,26.059 31.477,26.059 C31.523,24.948 31.399,23.801 31.140,22.625 ZM24.604,32.787 C24.604,32.787 24.583,36.952 24.583,36.952 C26.654,35.585 29.889,32.835 31.047,28.686 C31.047,28.686 24.604,32.787 24.604,32.787 Z" id="path-1" class="cls-2" fill-rule="evenodd"/>
</svg>
