<svg xmlns="http://www.w3.org/2000/svg" xmlns:xlink="http://www.w3.org/1999/xlink" preserveAspectRatio="xMidYMid" width="21" height="19" viewBox="0 0 21 19">
  <defs>
    <style>

      .cls-2 {
        fill: #353535;
        fill-opacity: 0.99;
      }
    </style>
  </defs>
  <path d="M17.059,18.986 C17.059,18.986 6.000,18.986 6.000,18.986 C4.343,18.986 3.000,17.642 3.000,15.985 C3.000,15.985 3.000,15.000 3.000,15.000 C3.000,15.000 5.000,15.000 5.000,15.000 C5.000,15.000 5.000,17.000 5.000,17.000 C5.000,17.000 18.000,17.000 18.000,17.000 C18.000,17.000 18.000,1.999 18.000,1.999 C18.000,1.999 5.000,1.999 5.000,1.999 C5.000,1.999 5.000,3.968 5.000,3.968 C5.000,3.968 3.000,3.968 3.000,3.968 C3.000,3.968 3.000,3.008 3.000,3.008 C3.000,1.351 4.343,0.008 6.000,0.008 C6.000,0.008 17.059,0.008 17.059,0.008 C18.715,0.008 20.059,1.351 20.059,3.008 C20.059,3.008 20.059,15.985 20.059,15.985 C20.059,17.642 18.715,18.986 17.059,18.986 ZM6.024,4.158 C6.024,4.158 13.051,9.458 13.051,9.458 C13.051,9.458 6.024,14.757 6.024,14.757 C6.024,14.757 6.024,12.014 6.024,12.014 C6.024,12.014 -0.005,12.014 -0.005,12.014 C-0.005,12.014 -0.005,6.901 -0.005,6.901 C-0.005,6.901 6.024,6.901 6.024,6.901 C6.024,6.901 6.024,4.158 6.024,4.158 Z" id="path-1" class="cls-2" fill-rule="evenodd"/>
</svg>
