<svg xmlns="http://www.w3.org/2000/svg" xmlns:xlink="http://www.w3.org/1999/xlink" preserveAspectRatio="xMidYMid" width="21" height="19" viewBox="0 0 21 19">
  <defs>
    <style>

      .cls-2 {
        fill: #ffffff;
        fill-opacity: 0.99;
      }
    </style>
  </defs>
  <path d="M17.059,18.986 C17.059,18.986 6.000,18.986 6.000,18.986 C4.343,18.986 3.000,17.642 3.000,15.985 C3.000,15.985 3.000,15.000 3.000,15.000 C3.000,15.000 5.000,15.000 5.000,15.000 C5.000,15.000 5.000,17.000 5.000,17.000 C5.000,17.000 18.000,17.000 18.000,17.000 C18.000,17.000 18.000,2.000 18.000,2.000 C18.000,2.000 5.000,2.000 5.000,2.000 C5.000,2.000 5.000,3.969 5.000,3.969 C5.000,3.969 3.000,3.969 3.000,3.969 C3.000,3.969 3.000,3.009 3.000,3.009 C3.000,1.352 4.343,0.009 6.000,0.009 C6.000,0.009 17.059,0.009 17.059,0.009 C18.716,0.009 20.059,1.352 20.059,3.009 C20.059,3.009 20.059,15.985 20.059,15.985 C20.059,17.642 18.716,18.986 17.059,18.986 ZM6.024,4.158 C6.024,4.158 13.051,9.458 13.051,9.458 C13.051,9.458 6.024,14.758 6.024,14.758 C6.024,14.758 6.024,12.015 6.024,12.015 C6.024,12.015 -0.005,12.015 -0.005,12.015 C-0.005,12.015 -0.005,6.901 -0.005,6.901 C-0.005,6.901 6.024,6.901 6.024,6.901 C6.024,6.901 6.024,4.158 6.024,4.158 Z" id="path-1" class="cls-2" fill-rule="evenodd"/>
</svg>
