<svg xmlns="http://www.w3.org/2000/svg" xmlns:xlink="http://www.w3.org/1999/xlink" preserveAspectRatio="xMidYMid" width="32" height="37" viewBox="0 0 32 37">
  <defs>
    <style>

      .cls-2 {
        fill: #ffffff;
        filter: url(#drop-shadow-1);
      }
    </style>

    <filter id="drop-shadow-1" filterUnits="userSpaceOnUse">
      <feOffset in="SourceAlpha" dx="0.5" dy="0.866"/>
      <feGaussianBlur result="dropShadow" stdDeviation="1.732"/>
      <feFlood flood-color="#313235" flood-opacity="0.5"/>
      <feComposite operator="in" in2="dropShadow"/>
      <feComposite in="SourceGraphic" result="dropShadow"/>
    </filter>
  </defs>
  <path d="M2.878,17.072 C2.878,17.072 6.560,17.072 6.560,17.072 C6.560,17.072 6.560,2.573 6.560,2.573 C6.560,2.573 15.450,2.573 15.450,2.573 C19.359,2.573 21.475,2.754 22.703,3.073 C26.339,4.027 29.111,7.300 29.111,12.391 C29.111,18.209 25.384,21.254 22.021,21.981 C20.475,22.299 18.677,22.436 15.768,22.436 C15.768,22.436 12.729,22.436 12.729,22.436 C12.729,22.436 12.729,25.163 12.729,25.163 C12.729,25.163 27.748,25.163 27.748,25.163 C27.748,25.163 27.748,30.527 27.748,30.527 C27.748,30.527 12.729,30.527 12.729,30.527 C12.729,30.527 12.729,34.436 12.729,34.436 C12.729,34.436 6.560,34.436 6.560,34.436 C6.560,34.436 6.560,30.527 6.560,30.527 C6.560,30.527 2.878,30.527 2.878,30.527 C2.878,30.527 2.878,25.163 2.878,25.163 C2.878,25.163 6.560,25.163 6.560,25.163 C6.560,25.163 6.560,22.436 6.560,22.436 C6.560,22.436 2.878,22.436 2.878,22.436 C2.878,22.436 2.878,17.072 2.878,17.072 ZM12.729,7.982 C12.729,7.982 12.729,17.027 12.729,17.027 C12.729,17.027 15.086,17.027 15.086,17.027 C17.631,17.027 18.884,16.845 19.748,16.527 C21.384,15.936 22.475,14.345 22.475,12.481 C22.475,10.163 20.930,8.573 18.884,8.209 C18.112,8.072 16.995,7.982 14.677,7.982 C14.677,7.982 12.729,7.982 12.729,7.982 Z" id="path-1" class="cls-2" fill-rule="evenodd"/>
</svg>
