<svg xmlns="http://www.w3.org/2000/svg" xmlns:xlink="http://www.w3.org/1999/xlink" preserveAspectRatio="xMidYMid" width="17" height="17" viewBox="0 0 17 17">
  <defs>
    <style>

      .cls-2 {
        fill: #ffffff;
      }
    </style>
  </defs>
  <path d="M11.936,10.497 C11.936,10.497 11.178,10.497 11.178,10.497 C11.178,10.497 10.915,10.236 10.915,10.236 C11.846,9.152 12.411,7.746 12.411,6.206 C12.411,2.782 9.633,0.007 6.205,0.007 C2.777,0.007 -0.001,2.782 -0.001,6.206 C-0.001,9.629 2.777,12.404 6.205,12.404 C7.747,12.404 9.154,11.840 10.239,10.910 C10.239,10.910 10.503,11.172 10.503,11.172 C10.503,11.172 10.503,11.927 10.503,11.927 C10.503,11.927 15.275,16.687 15.275,16.687 C15.275,16.687 16.698,15.265 16.698,15.265 C16.698,15.265 11.936,10.497 11.936,10.497 ZM6.205,10.497 C3.832,10.497 1.908,8.576 1.908,6.206 C1.908,3.835 3.832,1.914 6.205,1.914 C8.578,1.914 10.502,3.835 10.502,6.206 C10.502,8.576 8.578,10.497 6.205,10.497 Z" id="path-1" class="cls-2" fill-rule="evenodd"/>
</svg>
