<svg xmlns="http://www.w3.org/2000/svg" xmlns:xlink="http://www.w3.org/1999/xlink" preserveAspectRatio="xMidYMid" width="48" height="48" viewBox="0 0 48 48">
  <defs>
    <style>

      .cls-2 {
        fill: #323232;
      }
    </style>
  </defs>
  <path d="M23.714,47.389 C10.624,47.389 0.013,36.776 0.013,23.687 C0.013,10.597 10.624,-0.014 23.714,-0.014 C36.804,-0.014 47.416,10.597 47.416,23.687 C47.416,36.776 36.804,47.389 23.714,47.389 ZM23.714,1.986 C11.748,1.986 2.013,11.720 2.013,23.687 C2.013,35.654 11.748,45.389 23.714,45.389 C35.681,45.389 45.416,35.654 45.416,23.687 C45.416,11.720 35.681,1.986 23.714,1.986 ZM35.531,25.187 C35.531,25.187 31.531,25.187 31.531,25.187 C30.979,25.187 30.531,24.739 30.531,24.187 C30.531,23.635 30.979,23.187 31.531,23.187 C31.531,23.187 35.531,23.187 35.531,23.187 C36.083,23.187 36.531,23.635 36.531,24.187 C36.531,24.739 36.083,25.187 35.531,25.187 ZM35.531,21.187 C35.531,21.187 31.531,21.187 31.531,21.187 C30.979,21.187 30.531,20.739 30.531,20.187 C30.531,19.635 30.979,19.187 31.531,19.187 C31.531,19.187 35.531,19.187 35.531,19.187 C36.083,19.187 36.531,19.635 36.531,20.187 C36.531,20.739 36.083,21.187 35.531,21.187 ZM35.531,17.187 C35.531,17.187 31.531,17.187 31.531,17.187 C30.979,17.187 30.531,16.739 30.531,16.187 C30.531,15.635 30.979,15.187 31.531,15.187 C31.531,15.187 35.531,15.187 35.531,15.187 C36.083,15.187 36.531,15.635 36.531,16.187 C36.531,16.739 36.083,17.187 35.531,17.187 ZM35.531,13.187 C35.531,13.187 31.531,13.187 31.531,13.187 C30.979,13.187 30.531,12.739 30.531,12.187 C30.531,11.635 30.979,11.187 31.531,11.187 C31.531,11.187 35.531,11.187 35.531,11.187 C36.083,11.187 36.531,11.635 36.531,12.187 C36.531,12.739 36.083,13.187 35.531,13.187 ZM23.555,38.521 C19.805,38.521 16.731,35.482 16.731,31.746 C16.731,30.128 17.554,28.464 18.554,27.144 C18.554,27.144 18.554,12.303 18.554,12.303 C18.554,9.573 20.797,7.354 23.554,7.354 C26.311,7.354 28.554,9.573 28.554,12.303 C28.554,12.303 28.554,27.213 28.554,27.213 C29.554,28.497 30.331,30.107 30.331,31.746 C30.331,35.482 27.304,38.521 23.555,38.521 ZM26.600,28.032 C26.600,28.032 26.600,12.303 26.600,12.303 C26.600,10.677 25.226,9.354 23.600,9.354 C21.974,9.354 20.600,10.677 20.600,12.303 C20.600,12.303 20.600,27.967 20.600,27.967 C19.600,28.852 18.754,30.239 18.754,31.746 C18.754,34.379 20.923,36.521 23.555,36.521 C26.187,36.521 28.353,34.379 28.353,31.746 C28.353,30.267 27.600,28.919 26.600,28.032 ZM23.486,34.380 C21.954,34.380 20.712,33.138 20.712,31.606 C20.712,30.391 21.498,29.370 22.585,28.994 C22.585,28.994 22.585,12.162 22.585,12.162 C22.585,11.638 23.010,11.214 23.534,11.214 C24.058,11.214 24.483,11.638 24.483,12.162 C24.483,12.162 24.483,29.024 24.483,29.024 C25.521,29.425 26.260,30.426 26.260,31.606 C26.260,33.138 25.018,34.380 23.486,34.380 Z" id="path-1" class="cls-2" fill-rule="evenodd"/>
</svg>
