<svg xmlns="http://www.w3.org/2000/svg" xmlns:xlink="http://www.w3.org/1999/xlink" preserveAspectRatio="xMidYMid" width="32" height="32" viewBox="0 0 32 32">
  <defs>
    <style>

      .cls-2 {
        fill: #ffffff;
      }
    </style>
  </defs>
  <path d="M15.677,31.392 C7.011,31.392 -0.014,24.367 -0.014,15.701 C-0.014,7.035 7.011,0.009 15.677,0.009 C24.343,0.009 31.369,7.035 31.369,15.701 C31.369,24.367 24.343,31.392 15.677,31.392 ZM24.324,9.378 C23.620,9.795 22.841,10.098 22.011,10.261 C21.347,9.554 20.400,9.111 19.353,9.111 C17.341,9.111 15.710,10.742 15.710,12.753 C15.710,13.039 15.743,13.317 15.805,13.583 C12.778,13.431 10.094,11.981 8.297,9.778 C7.984,10.316 7.804,10.941 7.804,11.609 C7.804,12.873 8.447,13.988 9.425,14.641 C8.827,14.622 8.266,14.458 7.775,14.185 C7.774,14.200 7.774,14.216 7.774,14.231 C7.774,15.996 9.030,17.468 10.696,17.802 C10.391,17.885 10.069,17.930 9.737,17.930 C9.502,17.930 9.274,17.907 9.051,17.864 C9.515,19.312 10.860,20.365 12.454,20.394 C11.207,21.371 9.637,21.953 7.930,21.953 C7.636,21.953 7.346,21.936 7.062,21.902 C8.673,22.936 10.588,23.539 12.645,23.539 C19.344,23.539 23.008,17.989 23.008,13.176 C23.008,13.018 23.004,12.861 22.997,12.705 C23.709,12.191 24.326,11.549 24.815,10.819 C24.161,11.109 23.460,11.305 22.723,11.393 C23.475,10.942 24.052,10.228 24.324,9.378 Z" id="path-1" class="cls-2" fill-rule="evenodd"/>
</svg>
