<svg xmlns="http://www.w3.org/2000/svg" xmlns:xlink="http://www.w3.org/1999/xlink" preserveAspectRatio="xMidYMid" width="32" height="32" viewBox="0 0 32 32">
  <defs>
    <style>

      .cls-2 {
        fill: #ffffff;
        opacity: 0.8;
      }
    </style>
  </defs>
  <path d="M15.677,31.392 C7.011,31.392 -0.014,24.367 -0.014,15.701 C-0.014,7.034 7.011,0.009 15.677,0.009 C24.344,0.009 31.369,7.034 31.369,15.701 C31.369,24.367 24.344,31.392 15.677,31.392 ZM20.887,16.058 C20.383,15.512 19.710,15.154 18.871,14.976 C18.871,14.976 18.871,14.904 18.871,14.904 C19.454,14.658 19.912,14.278 20.243,13.761 C20.576,13.243 20.741,12.654 20.741,11.990 C20.741,11.416 20.620,10.911 20.380,10.472 C20.140,10.036 19.775,9.683 19.289,9.421 C18.840,9.178 18.357,9.019 17.842,8.945 C17.328,8.867 16.571,8.830 15.574,8.830 C15.574,8.830 10.770,8.830 10.770,8.830 C10.770,8.830 10.770,22.426 10.770,22.426 C10.770,22.426 16.212,22.426 16.212,22.426 C17.157,22.426 17.932,22.342 18.544,22.170 C19.158,21.998 19.719,21.714 20.230,21.313 C20.664,20.976 21.006,20.556 21.261,20.045 C21.518,19.533 21.645,18.938 21.645,18.261 C21.645,17.339 21.393,16.604 20.887,16.058 ZM17.235,19.668 C16.883,19.820 16.533,19.901 16.194,19.913 C15.854,19.926 15.240,19.932 14.352,19.932 C14.352,19.932 14.167,19.932 14.167,19.932 C14.167,19.932 14.167,16.528 14.167,16.528 C14.167,16.528 14.797,16.528 14.797,16.528 C15.405,16.528 15.891,16.531 16.253,16.541 C16.614,16.550 16.901,16.593 17.107,16.675 C17.447,16.796 17.702,16.974 17.874,17.214 C18.045,17.451 18.129,17.778 18.129,18.199 C18.129,18.526 18.058,18.820 17.914,19.078 C17.771,19.337 17.546,19.533 17.235,19.668 ZM16.552,13.991 C16.303,14.106 16.059,14.169 15.826,14.181 C15.592,14.194 15.180,14.200 14.597,14.200 C14.597,14.200 14.167,14.200 14.167,14.200 C14.167,14.200 14.167,11.323 14.167,11.323 C14.167,11.323 14.405,11.323 14.405,11.323 C15.012,11.323 15.471,11.326 15.779,11.335 C16.088,11.345 16.353,11.398 16.577,11.498 C16.817,11.600 16.991,11.769 17.104,11.999 C17.216,12.230 17.272,12.455 17.272,12.676 C17.272,12.972 17.219,13.234 17.116,13.462 C17.013,13.686 16.823,13.863 16.552,13.991 Z" id="path-1" class="cls-2" fill-rule="evenodd"/>
</svg>
