<svg xmlns="http://www.w3.org/2000/svg" xmlns:xlink="http://www.w3.org/1999/xlink" preserveAspectRatio="xMidYMid" width="108" height="37" viewBox="0 0 108 37">
  <defs>
    <style>

      .cls-2 {
        fill: #ffffff;
      }
    </style>
  </defs>
  <path d="M103.727,29.188 C102.828,31.348 101.653,32.074 100.392,32.074 C100.029,32.074 99.666,32.023 99.303,31.936 C99.303,31.936 99.303,30.363 99.303,30.363 C99.580,30.450 99.873,30.484 100.150,30.484 C101.049,30.484 101.722,29.845 102.206,28.549 C102.206,28.549 102.379,28.134 102.379,28.134 C102.379,28.134 98.439,19.769 98.439,19.769 C98.439,19.769 100.409,19.769 100.409,19.769 C100.409,19.769 103.209,26.025 103.209,26.025 C103.209,26.025 105.680,19.769 105.680,19.769 C105.680,19.769 107.616,19.769 107.616,19.769 C107.616,19.769 103.727,29.188 103.727,29.188 ZM95.673,22.932 C95.673,21.860 95.034,21.187 94.031,21.187 C93.116,21.187 92.407,21.791 91.975,22.310 C91.992,22.500 92.010,22.690 92.010,22.880 C92.010,22.880 92.010,28.065 92.010,28.065 C92.010,28.065 90.160,28.065 90.160,28.065 C90.160,28.065 90.160,22.932 90.160,22.932 C90.160,21.860 89.521,21.187 88.519,21.187 C87.516,21.187 86.756,21.912 86.324,22.465 C86.324,22.465 86.324,28.065 86.324,28.065 C86.324,28.065 84.474,28.065 84.474,28.065 C84.474,28.065 84.474,19.769 84.474,19.769 C84.474,19.769 86.116,19.769 86.116,19.769 C86.116,19.769 86.116,20.806 86.116,20.806 C86.566,20.305 87.533,19.545 88.882,19.545 C90.126,19.545 90.990,20.063 91.474,20.875 C92.200,20.149 93.168,19.545 94.377,19.545 C96.572,19.545 97.523,21.169 97.523,22.880 C97.523,22.880 97.523,28.065 97.523,28.065 C97.523,28.065 95.673,28.065 95.673,28.065 C95.673,28.065 95.673,22.932 95.673,22.932 ZM76.352,24.608 C76.559,26.095 78.011,26.717 79.531,26.717 C80.534,26.717 81.450,26.475 82.159,26.129 C82.159,26.129 82.159,27.719 82.159,27.719 C81.398,28.083 80.344,28.289 79.186,28.289 C76.645,28.289 74.485,26.838 74.485,23.917 C74.485,20.910 76.766,19.545 78.685,19.545 C81.986,19.545 83.126,22.206 82.591,24.608 C82.591,24.608 76.352,24.608 76.352,24.608 ZM78.771,21.083 C77.527,21.083 76.403,21.826 76.334,23.226 C76.334,23.226 80.931,23.226 80.931,23.226 C81.035,22.500 80.586,21.083 78.771,21.083 ZM71.028,26.752 C70.389,27.564 69.404,28.289 67.848,28.289 C65.342,28.289 63.735,26.302 63.735,23.917 C63.735,21.532 65.342,19.545 67.848,19.545 C69.300,19.545 70.268,20.184 70.838,20.841 C70.838,20.841 70.838,15.967 70.838,15.967 C70.838,15.967 72.687,15.967 72.687,15.967 C72.687,15.967 72.687,28.065 72.687,28.065 C72.687,28.065 71.028,28.065 71.028,28.065 C71.028,28.065 71.028,26.752 71.028,26.752 ZM70.821,22.897 C70.424,21.999 69.473,21.169 68.177,21.169 C66.690,21.169 65.602,22.293 65.602,23.917 C65.602,25.541 66.690,26.665 68.177,26.665 C69.473,26.665 70.424,25.835 70.821,24.919 C70.821,24.919 70.821,22.897 70.821,22.897 ZM70.838,1.442 C70.838,1.442 72.687,1.442 72.687,1.442 C72.687,1.442 72.687,13.540 72.687,13.540 C72.687,13.540 70.838,13.540 70.838,13.540 C70.838,13.540 70.838,1.442 70.838,1.442 ZM66.284,8.407 C66.284,7.336 65.644,6.661 64.642,6.661 C63.726,6.661 63.017,7.266 62.585,7.785 C62.603,7.975 62.620,8.165 62.620,8.355 C62.620,8.355 62.620,13.540 62.620,13.540 C62.620,13.540 60.771,13.540 60.771,13.540 C60.771,13.540 60.771,8.407 60.771,8.407 C60.771,7.336 60.131,6.661 59.129,6.661 C58.127,6.661 57.366,7.387 56.934,7.940 C56.934,7.940 56.934,13.540 56.934,13.540 C56.934,13.540 55.085,13.540 55.085,13.540 C55.085,13.540 55.085,5.244 55.085,5.244 C55.085,5.244 56.726,5.244 56.726,5.244 C56.726,5.244 56.726,6.281 56.726,6.281 C57.176,5.780 58.144,5.020 59.492,5.020 C60.736,5.020 61.600,5.538 62.084,6.350 C62.810,5.624 63.778,5.020 64.988,5.020 C67.182,5.020 68.133,6.644 68.133,8.355 C68.133,8.355 68.133,13.540 68.133,13.540 C68.133,13.540 66.284,13.540 66.284,13.540 C66.284,13.540 66.284,8.407 66.284,8.407 ZM57.790,21.152 C56.563,21.152 55.543,21.463 54.800,21.791 C54.800,21.791 54.800,20.097 54.800,20.097 C55.457,19.873 56.649,19.545 57.980,19.545 C60.330,19.545 61.817,20.668 61.817,23.174 C61.817,23.174 61.817,26.147 61.817,26.147 C61.817,26.613 62.093,26.752 62.422,26.752 C62.612,26.752 62.802,26.699 62.975,26.648 C62.975,26.648 62.975,27.978 62.975,27.978 C62.629,28.116 62.214,28.186 61.800,28.186 C61.039,28.186 60.434,27.892 60.140,27.218 C59.328,27.875 58.308,28.289 57.012,28.289 C55.509,28.289 54.109,27.460 54.109,25.749 C54.109,23.623 56.079,22.966 57.807,22.966 C58.516,22.966 59.311,23.070 59.968,23.208 C59.968,23.208 59.968,22.915 59.968,22.915 C59.968,21.878 59.207,21.152 57.790,21.152 ZM58.170,24.263 C57.116,24.263 56.010,24.591 56.010,25.628 C56.010,26.440 56.736,26.855 57.565,26.855 C58.447,26.855 59.311,26.526 59.968,25.870 C59.968,25.870 59.968,24.470 59.968,24.470 C59.466,24.366 58.758,24.263 58.170,24.263 ZM47.879,11.017 C47.879,11.017 47.879,6.869 47.879,6.869 C47.879,6.869 46.393,6.869 46.393,6.869 C46.393,6.869 46.393,5.244 46.393,5.244 C46.393,5.244 47.879,5.244 47.879,5.244 C47.879,5.244 47.879,2.738 47.879,2.738 C47.879,2.738 49.711,2.289 49.711,2.289 C49.711,2.289 49.711,5.244 49.711,5.244 C49.711,5.244 52.718,5.244 52.718,5.244 C52.718,5.244 52.718,6.869 52.718,6.869 C52.718,6.869 49.711,6.869 49.711,6.869 C49.711,6.869 49.711,10.671 49.711,10.671 C49.711,11.760 50.212,12.123 51.283,12.123 C51.888,12.123 52.441,12.002 52.960,11.794 C52.960,11.794 52.960,13.385 52.960,13.385 C52.338,13.609 51.543,13.747 50.730,13.747 C49.123,13.747 47.879,12.952 47.879,11.017 ZM50.307,19.545 C51.240,19.545 52.139,19.752 52.865,20.184 C52.865,20.184 52.865,21.878 52.865,21.878 C52.259,21.446 51.413,21.187 50.566,21.187 C49.097,21.187 47.610,21.964 47.610,23.917 C47.610,25.801 49.045,26.648 50.531,26.648 C51.413,26.648 52.294,26.388 52.951,26.009 C52.951,26.009 52.951,27.719 52.951,27.719 C52.156,28.099 51.257,28.289 50.203,28.289 C47.991,28.289 45.727,26.941 45.727,23.986 C45.727,20.893 48.095,19.545 50.307,19.545 ZM42.132,27.218 C41.320,27.875 40.300,28.289 39.004,28.289 C37.500,28.289 36.100,27.460 36.100,25.749 C36.100,23.623 38.071,22.966 39.799,22.966 C40.508,22.966 41.302,23.070 41.959,23.208 C41.959,23.208 41.959,22.915 41.959,22.915 C41.959,21.878 41.199,21.152 39.782,21.152 C38.555,21.152 37.535,21.463 36.792,21.791 C36.792,21.791 36.792,20.097 36.792,20.097 C37.449,19.873 38.641,19.545 39.972,19.545 C42.322,19.545 43.808,20.668 43.808,23.174 C43.808,23.174 43.808,26.147 43.808,26.147 C43.808,26.613 44.085,26.752 44.413,26.752 C44.603,26.752 44.793,26.699 44.966,26.648 C44.966,26.648 44.966,27.978 44.966,27.978 C44.621,28.116 44.206,28.186 43.791,28.186 C43.031,28.186 42.426,27.892 42.132,27.218 ZM41.959,24.470 C41.458,24.366 40.749,24.263 40.162,24.263 C39.108,24.263 38.002,24.591 38.002,25.628 C38.002,26.440 38.727,26.855 39.557,26.855 C40.438,26.855 41.302,26.526 41.959,25.870 C41.959,25.870 41.959,24.470 41.959,24.470 ZM42.797,8.649 C42.797,7.301 41.968,6.661 40.862,6.661 C39.808,6.661 39.013,7.370 38.546,8.044 C38.546,8.044 38.546,13.540 38.546,13.540 C38.546,13.540 36.697,13.540 36.697,13.540 C36.697,13.540 36.697,1.442 36.697,1.442 C36.697,1.442 38.546,1.442 38.546,1.442 C38.546,1.442 38.546,6.160 38.546,6.160 C39.151,5.538 40.102,5.020 41.225,5.020 C43.316,5.020 44.647,6.437 44.647,8.407 C44.647,8.407 44.647,13.540 44.647,13.540 C44.647,13.540 42.797,13.540 42.797,13.540 C42.797,13.540 42.797,8.649 42.797,8.649 ZM-0.000,28.065 C-0.000,28.065 -0.000,1.518 -0.000,1.518 C-0.000,1.518 14.483,-0.000 14.483,-0.000 C14.483,-0.000 14.636,0.015 14.636,0.015 C14.636,0.015 28.968,1.518 28.968,1.518 C28.968,1.518 28.968,28.065 28.968,28.065 C28.968,28.065 14.484,36.683 14.484,36.683 C14.484,36.683 -0.000,28.065 -0.000,28.065 ZM27.073,3.224 C27.073,3.224 14.484,1.904 14.484,1.904 C14.484,1.904 1.894,3.224 1.894,3.224 C1.894,3.224 1.894,13.183 1.894,13.183 C1.894,13.183 14.413,5.730 14.413,5.730 C14.413,5.730 14.413,5.728 14.413,5.728 C14.413,5.728 14.414,5.729 14.414,5.729 C14.414,5.729 14.416,5.728 14.416,5.728 C14.416,5.728 14.416,5.730 14.416,5.730 C14.416,5.730 27.073,13.192 27.073,13.192 C27.073,13.192 27.073,3.224 27.073,3.224 ZM14.446,18.236 C14.446,18.236 17.637,20.115 17.637,20.115 C17.637,20.115 17.661,20.100 17.661,20.100 C17.661,20.100 18.657,19.434 18.657,19.434 C18.657,19.434 14.434,16.922 14.434,16.922 C14.434,16.922 14.446,15.610 14.446,15.610 C14.446,15.610 19.797,18.793 19.797,18.793 C19.797,18.793 20.718,18.250 20.718,18.250 C20.718,18.250 20.857,18.168 20.857,18.168 C20.857,18.168 20.915,18.134 20.915,18.134 C20.915,18.134 14.434,14.280 14.434,14.280 C14.434,14.280 14.446,12.967 14.446,12.967 C14.446,12.967 22.029,17.478 22.029,17.478 C22.029,17.478 23.619,16.541 23.619,16.541 C23.619,16.541 27.063,14.512 27.063,14.512 C27.063,14.512 14.413,7.140 14.413,7.140 C14.413,7.140 14.413,7.139 14.413,7.139 C14.413,7.139 1.922,14.647 1.922,14.647 C1.922,14.647 14.395,22.062 14.395,22.062 C14.395,22.062 16.527,20.781 16.527,20.781 C16.527,20.781 14.434,19.548 14.434,19.548 C14.434,19.548 14.446,18.236 14.446,18.236 ZM27.073,15.924 C27.073,15.924 23.189,18.243 23.189,18.243 C23.189,18.243 23.189,21.540 23.189,21.540 C23.189,21.540 23.189,22.081 23.189,22.081 C23.189,22.081 23.189,22.531 23.189,22.531 C23.189,22.531 23.200,22.525 23.200,22.525 C23.200,22.525 23.200,23.844 23.200,23.844 C23.200,23.844 14.484,29.059 14.484,29.059 C14.484,29.059 5.850,23.870 5.850,23.870 C5.850,23.870 5.863,22.558 5.863,22.558 C5.863,22.558 14.494,27.692 14.494,27.692 C14.494,27.692 14.472,26.304 14.472,26.304 C14.472,26.304 5.838,21.115 5.838,21.115 C5.838,21.115 5.851,19.802 5.851,19.802 C5.851,19.802 14.451,24.920 14.451,24.920 C14.451,24.920 14.430,23.568 14.430,23.568 C14.430,23.568 1.894,16.107 1.894,16.107 C1.894,16.107 1.894,26.988 1.894,26.988 C1.894,26.988 14.484,34.479 14.484,34.479 C14.484,34.479 27.073,26.988 27.073,26.988 C27.073,26.988 27.073,15.924 27.073,15.924 Z" id="path-1" class="cls-2" fill-rule="evenodd"/>
</svg>
